<svg width="17" height="11" viewBox="0 0 17 11" fill="none" xmlns="http://www.w3.org/2000/svg">
<path d="M14.7831 0.840088H1.95656C1.14044 0.840088 0.476562 1.3969 0.476562 2.0814V9.52923C0.476562 10.2137 1.14044 10.7705 1.95656 10.7705H14.7831C15.5992 10.7705 16.2631 10.2137 16.2631 9.52923V2.0814C16.2631 1.3969 15.5992 0.840088 14.7831 0.840088ZM14.7831 1.66762C14.8501 1.66762 14.9139 1.67929 14.9722 1.69966L8.36981 6.49911L1.76744 1.69966C1.82573 1.67931 1.8895 1.66762 1.95652 1.66762H14.7831ZM14.7831 9.94299H1.95656C1.68436 9.94299 1.46321 9.75753 1.46321 9.52921V2.57395L8.04654 7.35937C8.13953 7.42683 8.25467 7.46039 8.36981 7.46039C8.48495 7.46039 8.60009 7.42686 8.69308 7.35937L15.2764 2.57395V9.52923C15.2764 9.75753 15.0553 9.94299 14.7831 9.94299Z" fill="#757575"/>
</svg>
